<svg xmlns="http://www.w3.org/2000/svg" viewBox="0 0 1163 1163" width="100%" height="100%">
  <g transform="translate(-353, -172)">
    <path d="M 947,780 L 930,785 L 918,791 L 909,797 L 895,811 L 892,815 L 889,821 L 887,823 L 882,833 L 879,842 L 877,853 L 877,874 L 878,880 L 881,891 L 883,894 L 883,896 L 885,900 L 887,902 L 888,905 L 890,907 L 891,910 L 900,922 L 910,931 L 916,935 L 932,943 L 934,943 L 940,946 L 950,948 L 976,948 L 985,946 L 994,943 L 1010,935 L 1017,930 L 1029,918 L 1038,905 L 1043,895 L 1047,882 L 1049,868 L 1049,855 L 1046,839 L 1043,830 L 1039,822 L 1035,817 L 1034,814 L 1032,811 L 1030,810 L 1026,813 L 996,843 L 996,845 L 999,850 L 1001,858 L 1001,869 L 1000,873 L 998,876 L 998,878 L 991,888 L 988,891 L 977,898 L 966,901 L 959,901 L 950,899 L 941,894 L 937,891 L 930,883 L 925,872 L 924,867 L 924,858 L 927,848 L 933,839 L 939,833 L 942,831 L 954,826 L 959,825 L 969,825 L 973,817 L 981,806 L 983,801 L 991,790 L 992,787 L 992,784 L 979,780 L 971,779 L 954,779 Z M 1130,718 L 1126,719 L 1079,769 L 1087,780 L 1096,799 L 1103,819 L 1107,839 L 1108,874 L 1104,897 L 1098,915 L 1088,935 L 1079,948 L 1058,970 L 1048,978 L 1025,992 L 995,1002 L 979,1005 L 951,1005 L 931,1002 L 907,994 L 889,985 L 869,970 L 851,952 L 845,944 L 834,925 L 824,899 L 820,878 L 820,848 L 825,822 L 831,809 L 834,798 L 756,800 L 752,815 L 748,844 L 748,876 L 752,904 L 761,935 L 770,956 L 779,972 L 793,992 L 806,1007 L 825,1025 L 858,1048 L 874,1056 L 903,1067 L 942,1075 L 981,1076 L 999,1074 L 1022,1069 L 1060,1054 L 1082,1041 L 1097,1030 L 1128,999 L 1149,968 L 1161,943 L 1169,920 L 1176,884 L 1177,850 L 1174,823 L 1169,800 L 1156,763 L 1147,745 Z M 1222,620 L 1209,630 L 1172,671 L 1188,691 L 1201,712 L 1215,740 L 1230,782 L 1239,835 L 1239,881 L 1236,906 L 1226,947 L 1206,994 L 1181,1032 L 1146,1069 L 1107,1098 L 1077,1114 L 1042,1127 L 1013,1134 L 979,1138 L 939,1137 L 899,1130 L 859,1117 L 828,1102 L 796,1081 L 760,1048 L 738,1021 L 721,994 L 702,952 L 693,922 L 686,880 L 645,993 L 670,1042 L 692,1074 L 710,1095 L 755,1136 L 793,1161 L 822,1176 L 875,1195 L 941,1206 L 987,1206 L 1016,1203 L 1043,1198 L 1080,1187 L 1117,1171 L 1144,1156 L 1191,1121 L 1219,1093 L 1243,1063 L 1263,1032 L 1277,1004 L 1298,943 L 1305,907 L 1308,874 L 1308,839 L 1305,807 L 1297,767 L 1283,723 L 1255,666 Z M 1237,494 L 1234,492 L 1232,494 L 1227,502 L 1218,512 L 1212,521 L 1203,531 L 1197,540 L 1183,557 L 1180,562 L 1176,566 L 1155,593 L 1147,605 L 1142,610 L 1133,623 L 1122,636 L 1117,644 L 1109,653 L 1104,661 L 1092,676 L 1088,683 L 1071,704 L 1063,715 L 1061,719 L 1040,746 L 1034,756 L 1027,764 L 1021,772 L 1015,782 L 1006,793 L 998,805 L 997,808 L 991,815 L 981,830 L 979,837 L 984,838 L 992,830 L 1000,820 L 997,817 L 1000,814 L 1003,817 L 1013,807 L 1026,791 L 1037,780 L 1049,765 L 1061,753 L 1073,738 L 1083,728 L 1099,710 L 1105,702 L 1138,666 L 1142,660 L 1154,648 L 1164,635 L 1175,624 L 1179,618 L 1190,607 L 1196,599 L 1204,591 L 1217,575 L 1238,552 L 1243,545 L 1263,523 L 1265,519 L 1261,515 L 1254,510 Z M 1344,476 L 1342,478 L 1324,492 L 1315,498 L 1311,500 L 1304,505 L 1301,508 L 1298,509 L 1297,513 L 1297,524 L 1296,530 L 1293,539 L 1291,543 L 1289,549 L 1289,553 L 1292,550 L 1301,543 L 1306,540 L 1326,523 L 1335,514 L 1337,511 L 1340,505 L 1343,496 L 1344,492 L 1345,487 Z M 1151,463 L 650,463 L 435,1132 L 434,1143 L 608,1025 L 692,769 L 863,769 L 878,756 L 908,739 L 933,731 L 958,728 L 1025,667 L 1030,659 L 1004,652 L 731,652 L 728,649 L 749,586 L 752,583 L 1050,582 Z M 1270,407 L 1266,407 L 1261,408 L 1252,411 L 1244,415 L 1238,419 L 1230,427 L 1226,433 L 1225,436 L 1221,440 L 1217,446 L 1216,449 L 1214,451 L 1212,454 L 1211,457 L 1207,463 L 1205,465 L 1203,468 L 1201,474 L 1204,473 L 1209,470 L 1211,470 L 1213,468 L 1216,467 L 1217,465 L 1215,463 L 1217,461 L 1219,460 L 1221,460 L 1224,463 L 1229,463 L 1235,462 L 1242,460 L 1247,449 L 1249,447 L 1251,442 L 1253,440 L 1253,438 L 1255,436 L 1257,431 L 1259,428 L 1261,426 L 1262,423 L 1264,421 L 1265,418 L 1267,416 L 1269,411 Z M 1435,300 L 1432,300 L 1414,304 L 1387,313 L 1384,315 L 1382,315 L 1373,320 L 1371,320 L 1361,325 L 1359,327 L 1356,328 L 1336,342 L 1312,366 L 1301,380 L 1289,397 L 1288,400 L 1286,402 L 1285,405 L 1283,407 L 1281,412 L 1279,414 L 1275,420 L 1274,423 L 1272,425 L 1271,428 L 1269,430 L 1262,445 L 1258,450 L 1253,461 L 1251,463 L 1246,474 L 1262,489 L 1269,494 L 1282,507 L 1284,507 L 1289,503 L 1293,501 L 1296,498 L 1305,493 L 1320,482 L 1328,473 L 1330,474 L 1332,472 L 1337,469 L 1340,466 L 1344,464 L 1354,456 L 1362,448 L 1368,444 L 1386,426 L 1400,408 L 1406,399 L 1407,396 L 1409,394 L 1417,378 L 1417,376 L 1420,371 L 1421,368 L 1421,366 L 1423,363 L 1429,343 L 1434,320 L 1436,307 Z M 1360,353 L 1369,353 L 1373,354 L 1377,356 L 1381,359 L 1385,363 L 1387,366 L 1389,370 L 1390,373 L 1390,383 L 1389,386 L 1386,392 L 1379,399 L 1376,401 L 1374,402 L 1371,403 L 1359,403 L 1353,401 L 1351,400 L 1343,392 L 1340,386 L 1339,383 L 1339,374 L 1340,371 L 1343,365 L 1351,357 L 1357,354 Z" fill="#e94560" fill-rule="evenodd" />
  </g>
</svg>