<svg xmlns="http://www.w3.org/2000/svg" viewBox="0 0 512 512" width="100%" height="100%">
  <defs>
    <!-- Rocket Mask to cut gaps in F and Target Rings -->
    <mask id="rocket-mask-github">
      <!-- White background to keep everything -->
      <rect x="0" y="0" width="512" height="512" fill="#FFFFFF" />
      <!-- Black diagonal line to cut the gap -->
      <line x1="256" y1="260" x2="420" y2="96" stroke="#000000" stroke-width="36" stroke-linecap="round" />
    </mask>
  </defs>

  <!-- Background tile -->
  <rect x="0" y="0" width="512" height="512" rx="112" fill="#0d0f1a" />

  <g transform="translate(0, -10) scale(0.95)">
    <!-- Masked Group (F and Target Rings) -->
    <g mask="url(#rocket-mask-github)">
      <!-- Stylized F -->
      <path d="M 172,110 
               L 410,110 
               L 410,154 
               L 220,154 
               L 204,204 
               L 350,204 
               L 350,248 
               L 190,248 
               L 150,370 
               L 106,370 
               Z" 
            fill="#e94560" />

      <!-- Target Rings -->
      <!-- Outer Ring -->
      <path d="M 256,160 
               A 100,100 0 1,1 156,260 
               A 100,100 0 0,1 256,160 Z" 
            fill="none" stroke="#e94560" stroke-width="22" />
      <!-- Mid Ring -->
      <circle cx="256" cy="260" r="60" fill="none" stroke="#e94560" stroke-width="20" />
    </g>

    <!-- Target Center Bullseye -->
    <circle cx="256" cy="260" r="25" fill="#e94560" />

    <!-- Rocket Trail -->
    <line x1="256" y1="260" x2="360" y2="156" stroke="#e94560" stroke-width="16" stroke-linecap="round" />

    <!-- Rocket -->
    <g transform="translate(360, 156) rotate(45)">
      <path d="M 0,-40 C 15,-15 15,15 12,30 L -12,30 C -15,15 -15,-15 0,-40 Z" fill="#e94560" />
      <path d="M -12,10 L -28,30 L -12,24 Z" fill="#e94560" />
      <path d="M 12,10 L 28,30 L 12,24 Z" fill="#e94560" />
      <circle cx="0" cy="-5" r="5" fill="#0d0f1a" />
    </g>
  </g>
</svg>
